# xmcd CD database file
#
# Track frame offsets:
#	150
#	14655
#	30008
#	43604
#	57069
#	69264
#	83487
#	98419
#	113473
#	127541
#	141100
#	153971
#	166267
#	179576
#	192107
#	205561
#	219068
#	230952
#	244424
#	258275
#
# Disc length: 3618 seconds
#
# Revision: 7
# Processed by: cddbd v1.5.2PL0 Copyright (c) Steve Scherf et al.
# Submitted via: CDex 1.91
#
DISCID=ef0e2014
DTITLE=Various Artist - 204140 Hop Head (1924-1928) CD1
DYEAR=1924
DGENRE=Jazz
TTITLE0=Choo Choo (Gotta Hurry Home)
TTITLE1=Rainy Nights
TTITLE2=I'm Gonna Hang Around My Sugar
TTITLE3=Trombone Blues
TTITLE4=Georgia Grind
TTITLE5=Parlor Social Stomp
TTITLE6=(You've Got Those) Wanna-Go-Back-Again-Blues
TTITLE7=If You Can't Hold the Man You Love
TTITLE8=Animal Crackers
TTITLE9=Li'l Farina
TTITLE10=East St. Louis Toodle-Oo
TTITLE11=Birmingham Breakdown
TTITLE12=Immigration Blues
TTITLE13=The Creeper
TTITLE14=New Orleans Low-Down
TTITLE15=Song of the Cotton Field
TTITLE16=Birmingham Breakdown
TTITLE17=East St. Louis Toodle-Oo
TTITLE18=East St. Louis Toodle-Oo
TTITLE19=Hop Head
EXTD=YEAR: 1924
EXTT0=
EXTT1=
EXTT2=
EXTT3=
EXTT4=
EXTT5=
EXTT6=
EXTT7=
EXTT8=
EXTT9=
EXTT10=
EXTT11=
EXTT12=
EXTT13=
EXTT14=
EXTT15=
EXTT16=
EXTT17=
EXTT18=
EXTT19=
PLAYORDER=
